<?xml version="1.0" encoding="utf-8"?>
<!-- Generator: Adobe Illustrator 24.3.0, SVG Export Plug-In . SVG Version: 6.00 Build 0)  -->
<svg version="1.1" id="katman_1" xmlns="http://www.w3.org/2000/svg" xmlns:xlink="http://www.w3.org/1999/xlink" x="0px" y="0px"
	 viewBox="0 0 256 64" enable-background="new 0 0 256 64" xml:space="preserve">
<g>
	<g>
		<path fill="#FFFFFF" d="M19.62,6.87h8.81v42.71h-8.81V6.87z M23.48,41.83H38.4c2.01,0,3.57-0.44,4.68-1.34
			c1.1-0.89,1.66-2.14,1.66-3.75v-0.09c0-1.08-0.25-2-0.74-2.76s-1.22-1.35-2.17-1.75c-0.95-0.4-2.1-0.6-3.42-0.6H23.48v-7.75H38.4
			c1.82,0,3.23-0.42,4.23-1.26c1-0.84,1.5-2.03,1.5-3.55c0-1.37-0.5-2.44-1.5-3.2c-1-0.76-2.41-1.15-4.23-1.15H23.48V6.87h15.21
			c3.02,0,5.61,0.46,7.75,1.37s3.77,2.23,4.89,3.97c1.11,1.73,1.67,3.81,1.67,6.24c0,1.66-0.36,3.14-1.08,4.42
			c-0.72,1.28-1.76,2.34-3.14,3.16s-3.02,1.38-4.95,1.67c2.06,0.25,3.82,0.83,5.29,1.72c1.47,0.89,2.58,2.05,3.34,3.48
			c0.76,1.43,1.14,3.08,1.14,4.96v0.09c0,2.45-0.56,4.54-1.69,6.29S49.15,47.3,47,48.21c-2.15,0.91-4.74,1.37-7.77,1.37H23.48V41.83
			z"/>
	</g>
	<path fill="#009FE3" d="M67.98,15.2l-10.63,8.96l3.82,1.31c0,0-3.53,12.49-16.11,21.37V30.41h-4.66v19.3
		c-0.37,0.2-0.75,0.39-1.14,0.59V34.81h-4.66V52.3c-0.38,0.14-0.76,0.27-1.15,0.4V39.49h-4.66v14.54c-2.76,0.64-5.74,1.11-8.96,1.33
		c0,0,36.44,5.66,47.79-27.89l3.6,1.05L67.98,15.2z"/>
	<g>
		<path fill="#FFFFFF" d="M90.96,31.86c0.41,0.53,0.61,1.2,0.61,1.99c0,1.09-0.42,1.93-1.26,2.53c-0.84,0.59-2.06,0.89-3.67,0.89
			h-6.26v-12.6h5.9c1.49,0,2.63,0.29,3.44,0.87c0.8,0.58,1.21,1.38,1.21,2.4c0,0.62-0.14,1.18-0.43,1.66s-0.68,0.85-1.19,1.12
			C90,30.94,90.55,31.32,90.96,31.86z M82.72,26.5v3.47h3.31c0.82,0,1.44-0.15,1.88-0.44c0.44-0.29,0.66-0.72,0.66-1.29
			c0-0.58-0.22-1.01-0.66-1.31c-0.44-0.29-1.07-0.44-1.88-0.44H82.72z M89.21,33.61c0-1.21-0.91-1.82-2.72-1.82h-3.78v3.64h3.78
			C88.31,35.43,89.21,34.82,89.21,33.61z"/>
		<path fill="#FFFFFF" d="M100.78,28.56c0.75,0.68,1.12,1.7,1.12,3.07v5.63h-2.12V36.1c-0.28,0.42-0.67,0.74-1.18,0.96
			c-0.51,0.22-1.12,0.33-1.85,0.33s-1.35-0.12-1.89-0.37s-0.96-0.59-1.25-1.03c-0.29-0.44-0.44-0.93-0.44-1.49
			c0-0.86,0.32-1.56,0.96-2.08s1.65-0.78,3.03-0.78h2.48v-0.14c0-0.67-0.2-1.19-0.6-1.55c-0.4-0.36-1-0.54-1.79-0.54
			c-0.54,0-1.07,0.08-1.59,0.25c-0.52,0.17-0.96,0.4-1.32,0.7l-0.88-1.64c0.5-0.38,1.11-0.68,1.82-0.88
			c0.71-0.2,1.46-0.31,2.25-0.31C98.95,27.54,100.03,27.88,100.78,28.56z M98.73,35.37c0.44-0.26,0.75-0.63,0.93-1.11v-1.12h-2.32
			c-1.3,0-1.94,0.43-1.94,1.28c0,0.41,0.16,0.73,0.49,0.97c0.32,0.24,0.77,0.36,1.35,0.36C97.79,35.75,98.29,35.62,98.73,35.37z"/>
		<path fill="#FFFFFF" d="M113.6,27.65l-4.5,10.39c-0.42,1.04-0.93,1.78-1.53,2.2c-0.6,0.43-1.33,0.64-2.18,0.64
			c-0.48,0-0.95-0.08-1.42-0.23c-0.47-0.16-0.85-0.37-1.15-0.65l0.9-1.66c0.22,0.2,0.47,0.37,0.76,0.49
			c0.29,0.12,0.59,0.18,0.89,0.18c0.4,0,0.72-0.1,0.98-0.31c0.26-0.21,0.5-0.55,0.71-1.03l0.16-0.38l-4.19-9.65h2.34l3.02,7.11
			l3.04-7.11H113.6z"/>
		<path fill="#FFFFFF" d="M117.49,27.15v0.58h2.65v1.8h-2.57v7.74h-2.25v-7.74h-1.58v-1.8h1.58v-0.61c0-1.03,0.3-1.85,0.9-2.44
			c0.6-0.59,1.45-0.89,2.54-0.89c0.87,0,1.54,0.17,2.04,0.52L120.16,26c-0.38-0.26-0.8-0.4-1.24-0.4
			C117.97,25.6,117.49,26.12,117.49,27.15z"/>
		<path fill="#FFFFFF" d="M123.2,36.76c-0.78-0.42-1.39-1-1.83-1.75s-0.66-1.6-0.66-2.55c0-0.95,0.22-1.79,0.66-2.54
			c0.44-0.74,1.05-1.33,1.83-1.75s1.66-0.63,2.63-0.63c0.98,0,1.87,0.21,2.65,0.63c0.78,0.42,1.39,1,1.83,1.75
			c0.44,0.74,0.66,1.59,0.66,2.54c0,0.95-0.22,1.8-0.66,2.55c-0.44,0.75-1.05,1.33-1.83,1.75c-0.78,0.42-1.66,0.63-2.65,0.63
			C124.85,37.39,123.98,37.18,123.2,36.76z M127.88,34.64c0.54-0.55,0.81-1.28,0.81-2.18c0-0.9-0.27-1.63-0.81-2.18
			s-1.22-0.83-2.05-0.83s-1.51,0.28-2.04,0.83s-0.8,1.28-0.8,2.18c0,0.9,0.27,1.63,0.8,2.18s1.21,0.83,2.04,0.83
			S127.34,35.19,127.88,34.64z"/>
		<path fill="#FFFFFF" d="M138.68,27.54v2.14c-0.19-0.04-0.37-0.05-0.52-0.05c-0.88,0-1.56,0.25-2.05,0.76
			c-0.49,0.51-0.74,1.25-0.74,2.21v4.66h-2.25v-9.61h2.14v1.4C135.91,28.05,137.05,27.54,138.68,27.54z"/>
		<path fill="#FFFFFF" d="M149.91,23.91v13.36h-2.16v-1.24c-0.37,0.46-0.83,0.8-1.38,1.03s-1.15,0.34-1.81,0.34
			c-0.92,0-1.75-0.2-2.49-0.61c-0.74-0.41-1.32-0.99-1.74-1.74c-0.42-0.75-0.63-1.61-0.63-2.58c0-0.97,0.21-1.83,0.63-2.57
			c0.42-0.74,1-1.32,1.74-1.73c0.74-0.41,1.57-0.61,2.49-0.61c0.64,0,1.22,0.11,1.75,0.32s0.98,0.54,1.35,0.97v-4.93H149.91z
			 M146.29,35.1c0.43-0.25,0.77-0.6,1.03-1.05c0.25-0.46,0.38-0.98,0.38-1.58c0-0.6-0.13-1.13-0.38-1.58
			c-0.25-0.46-0.59-0.81-1.03-1.05c-0.43-0.25-0.92-0.37-1.46-0.37c-0.54,0-1.03,0.12-1.46,0.37c-0.43,0.25-0.77,0.6-1.03,1.05
			c-0.25,0.46-0.38,0.98-0.38,1.58c0,0.6,0.13,1.13,0.38,1.58c0.25,0.46,0.59,0.81,1.03,1.05c0.43,0.25,0.92,0.37,1.46,0.37
			C145.37,35.47,145.86,35.34,146.29,35.1z"/>
		<path fill="#FFFFFF" d="M166.22,34.35h-6.3l-1.24,2.92h-2.41l5.67-12.6h2.3l5.69,12.6h-2.45L166.22,34.35z M165.44,32.51
			l-2.38-5.51l-2.36,5.51H165.44z"/>
		<path fill="#FFFFFF" d="M179.68,28.61c0.73,0.71,1.1,1.76,1.1,3.15v5.51h-2.25v-5.22c0-0.84-0.2-1.47-0.59-1.9
			c-0.4-0.43-0.96-0.64-1.69-0.64c-0.83,0-1.48,0.25-1.96,0.75c-0.48,0.5-0.72,1.22-0.72,2.15v4.86h-2.25v-9.61h2.14v1.24
			c0.37-0.44,0.84-0.78,1.4-1.01c0.56-0.23,1.2-0.34,1.91-0.34C177.98,27.54,178.95,27.9,179.68,28.61z"/>
		<path fill="#FFFFFF" d="M190.56,28.56c0.75,0.68,1.12,1.7,1.12,3.07v5.63h-2.12V36.1c-0.28,0.42-0.67,0.74-1.18,0.96
			s-1.12,0.33-1.84,0.33s-1.35-0.12-1.89-0.37s-0.96-0.59-1.25-1.03c-0.29-0.44-0.44-0.93-0.44-1.49c0-0.86,0.32-1.56,0.96-2.08
			s1.65-0.78,3.03-0.78h2.48v-0.14c0-0.67-0.2-1.19-0.6-1.55s-1-0.54-1.79-0.54c-0.54,0-1.07,0.08-1.59,0.25
			c-0.52,0.17-0.96,0.4-1.32,0.7l-0.88-1.64c0.5-0.38,1.11-0.68,1.82-0.88c0.71-0.2,1.46-0.31,2.25-0.31
			C188.73,27.54,189.81,27.88,190.56,28.56z M188.51,35.37c0.44-0.26,0.75-0.63,0.93-1.11v-1.12h-2.32c-1.3,0-1.94,0.43-1.94,1.28
			c0,0.41,0.16,0.73,0.49,0.97s0.77,0.36,1.35,0.36C187.57,35.75,188.07,35.62,188.51,35.37z"/>
		<path fill="#FFFFFF" d="M194.57,23.91h2.25v13.36h-2.25V23.91z"/>
		<path fill="#FFFFFF" d="M208.77,27.65l-4.5,10.39c-0.42,1.04-0.93,1.78-1.53,2.2c-0.6,0.43-1.33,0.64-2.18,0.64
			c-0.48,0-0.95-0.08-1.42-0.23c-0.47-0.16-0.85-0.37-1.15-0.65l0.9-1.66c0.22,0.2,0.47,0.37,0.77,0.49
			c0.29,0.12,0.59,0.18,0.89,0.18c0.4,0,0.72-0.1,0.98-0.31c0.26-0.21,0.49-0.55,0.71-1.03l0.16-0.38l-4.19-9.65h2.34l3.02,7.11
			l3.04-7.11H208.77z"/>
		<path fill="#FFFFFF" d="M216.22,36.74c-0.26,0.22-0.58,0.38-0.96,0.49c-0.38,0.11-0.78,0.16-1.2,0.16c-1.06,0-1.87-0.28-2.45-0.83
			c-0.58-0.55-0.86-1.36-0.86-2.41v-4.63h-1.58v-1.8h1.58v-2.2H213v2.2h2.57v1.8H213v4.57c0,0.47,0.11,0.83,0.34,1.07
			c0.23,0.25,0.56,0.37,0.99,0.37c0.5,0,0.92-0.13,1.26-0.4L216.22,36.74z"/>
		<path fill="#FFFFFF" d="M218.29,25.76c-0.24-0.24-0.36-0.55-0.36-0.92s0.12-0.68,0.36-0.92c0.24-0.24,0.55-0.36,0.92-0.36
			c0.37,0,0.68,0.12,0.92,0.36c0.24,0.24,0.36,0.55,0.36,0.92s-0.12,0.68-0.36,0.92c-0.24,0.24-0.55,0.36-0.92,0.36
			C218.84,26.12,218.53,26,218.29,25.76z M218.07,27.65h2.25v9.61h-2.25V27.65z"/>
		<path fill="#FFFFFF" d="M225,36.76c-0.79-0.42-1.41-1-1.85-1.75c-0.44-0.75-0.67-1.6-0.67-2.55c0-0.95,0.22-1.79,0.67-2.54
			c0.44-0.74,1.06-1.33,1.85-1.75c0.79-0.42,1.68-0.63,2.69-0.63c0.95,0,1.78,0.19,2.49,0.58c0.71,0.38,1.25,0.94,1.61,1.66
			l-1.73,1.01c-0.28-0.44-0.62-0.78-1.04-1c-0.41-0.22-0.87-0.33-1.36-0.33c-0.84,0-1.54,0.27-2.09,0.82
			c-0.55,0.55-0.83,1.28-0.83,2.19c0,0.91,0.27,1.64,0.82,2.19c0.55,0.55,1.24,0.82,2.1,0.82c0.49,0,0.95-0.11,1.36-0.33
			c0.41-0.22,0.76-0.56,1.04-1l1.73,1.01c-0.37,0.72-0.92,1.28-1.63,1.67c-0.71,0.39-1.54,0.58-2.48,0.58
			C226.69,37.39,225.8,37.18,225,36.76z"/>
		<path fill="#FFFFFF" d="M234.42,37.09c-0.74-0.2-1.34-0.46-1.78-0.77l0.86-1.71c0.43,0.29,0.95,0.52,1.56,0.69
			c0.61,0.17,1.2,0.26,1.79,0.26c1.34,0,2.02-0.35,2.02-1.06c0-0.34-0.17-0.57-0.51-0.7c-0.34-0.13-0.89-0.26-1.65-0.38
			c-0.79-0.12-1.44-0.26-1.94-0.41c-0.5-0.16-0.93-0.43-1.3-0.82c-0.37-0.39-0.55-0.93-0.55-1.63c0-0.91,0.38-1.64,1.14-2.19
			c0.76-0.55,1.79-0.82,3.09-0.82c0.66,0,1.32,0.08,1.98,0.23c0.66,0.15,1.2,0.35,1.62,0.6l-0.86,1.71
			c-0.82-0.48-1.73-0.72-2.75-0.72c-0.66,0-1.16,0.1-1.5,0.3c-0.34,0.2-0.51,0.46-0.51,0.78c0,0.36,0.18,0.61,0.55,0.76
			c0.37,0.15,0.93,0.29,1.7,0.42c0.77,0.12,1.4,0.26,1.89,0.41c0.49,0.16,0.92,0.42,1.27,0.79c0.35,0.37,0.53,0.9,0.53,1.58
			c0,0.9-0.39,1.62-1.17,2.16s-1.84,0.81-3.19,0.81C235.92,37.39,235.16,37.29,234.42,37.09z"/>
	</g>
</g>
</svg>
